<svg width="48" height="48" viewBox="0 0 48 48" fill="none" xmlns="http://www.w3.org/2000/svg">
<path d="M0 24C0 10.7452 10.7452 0 24 0C37.2548 0 48 10.7452 48 24C48 37.2548 37.2548 48 24 48C10.7452 48 0 37.2548 0 24Z" fill="#F4EBFF"/>
<path d="M14 26.5L23.6422 31.3211C23.7734 31.3867 23.839 31.4195 23.9078 31.4324C23.9687 31.4438 24.0313 31.4438 24.0922 31.4324C24.161 31.4195 24.2266 31.3867 24.3578 31.3211L34 26.5M14 21.5L23.6422 16.6789C23.7734 16.6133 23.839 16.5805 23.9078 16.5676C23.9687 16.5562 24.0313 16.5562 24.0922 16.5676C24.161 16.5805 24.2266 16.6133 24.3578 16.6789L34 21.5L24.3578 26.3211C24.2266 26.3867 24.161 26.4195 24.0922 26.4324C24.0313 26.4438 23.9687 26.4438 23.9078 26.4324C23.839 26.4195 23.7734 26.3867 23.6422 26.3211L14 21.5Z" stroke="#7F56D9" stroke-width="2" stroke-linecap="round" stroke-linejoin="round"/>
</svg>
